# xmcd
# 
# Track frame offsets:
#     150
#     12800
#     24650
#     35497
#     51507
#     58590
#     71935
#     81297
#     95645
#     104852
# 
# Disc length: 1559
# 
# Revision: 3
# Processed by: cddbd v1.5.2PL0 Copyright (c) Steve Scherf et al.
# Submitted via: BonkEnc v1.0.8
# 
DISCID=9006150a
DTITLE=Fats Domino - Smash Hits
DYEAR=1990
DGENRE=Rock and Roll
TTITLE0=I'm Walkin'
TTITLE1=I Want To Walk You Home
TTITLE2=Kansas City
TTITLE3=So Long
TTITLE4=Whole Lotta Loving
TTITLE5=Heartbreak Hill
TTITLE6=Let The Four Winds Blow
TTITLE7=Yes It's Me And I'm In Love Again
TTITLE8=Be My Guest
TTITLE9=Blueberry Hill (Live)
EXTD=
EXTT0=
EXTT1=
EXTT2=
EXTT3=
EXTT4=
EXTT5=
EXTT6=
EXTT7=
EXTT8=
EXTT9=
PLAYORDER=
